<svg xmlns="http://www.w3.org/2000/svg" xmlns:xlink="http://www.w3.org/1999/xlink" width="500" zoomAndPan="magnify" viewBox="0 0 375 374.999991" height="500" preserveAspectRatio="xMidYMid meet" version="1.0"><defs><g/><clipPath id="id1"><path d="M 339 55 L 348.707031 55 L 348.707031 320 L 339 320 Z M 339 55 " clip-rule="nonzero"/></clipPath><clipPath id="id2"><path d="M 26.207031 55 L 36 55 L 36 320 L 26.207031 320 Z M 26.207031 55 " clip-rule="nonzero"/></clipPath><clipPath id="id3"><path d="M 55 26.207031 L 320 26.207031 L 320 36 L 55 36 Z M 55 26.207031 " clip-rule="nonzero"/></clipPath><clipPath id="id4"><path d="M 55 339 L 320 339 L 320 348.707031 L 55 348.707031 Z M 55 339 " clip-rule="nonzero"/></clipPath><clipPath id="id5"><path d="M 319 26.207031 L 348.707031 26.207031 L 348.707031 56 L 319 56 Z M 319 26.207031 " clip-rule="nonzero"/></clipPath><clipPath id="id6"><path d="M 26.207031 26.207031 L 56 26.207031 L 56 56 L 26.207031 56 Z M 26.207031 26.207031 " clip-rule="nonzero"/></clipPath><clipPath id="id7"><path d="M 319 319 L 348.707031 319 L 348.707031 348.707031 L 319 348.707031 Z M 319 319 " clip-rule="nonzero"/></clipPath><clipPath id="id8"><path d="M 26.207031 319 L 56 319 L 56 348.707031 L 26.207031 348.707031 Z M 26.207031 319 " clip-rule="nonzero"/></clipPath></defs><rect x="-37.5" width="450" fill="#000000" y="-37.499999" height="449.999989" fill-opacity="1"/><rect x="-37.5" width="450" fill="#ffffff" y="-37.499999" height="449.999989" fill-opacity="1"/><rect x="-37.5" width="450" fill="#000000" y="-37.499999" height="449.999989" fill-opacity="1"/><g clip-path="url(#id1)"><path fill="#ffffff" d="M 339.070312 55.757812 L 348.707031 55.757812 L 348.707031 319.15625 L 339.070312 319.15625 Z M 339.070312 55.757812 " fill-opacity="1" fill-rule="nonzero"/></g><g clip-path="url(#id2)"><path fill="#ffffff" d="M 26.207031 55.757812 L 35.84375 55.757812 L 35.84375 319.15625 L 26.207031 319.15625 Z M 26.207031 55.757812 " fill-opacity="1" fill-rule="nonzero"/></g><g clip-path="url(#id3)"><path fill="#ffffff" d="M 55.757812 26.207031 L 319.15625 26.207031 L 319.15625 35.84375 L 55.757812 35.84375 Z M 55.757812 26.207031 " fill-opacity="1" fill-rule="nonzero"/></g><g clip-path="url(#id4)"><path fill="#ffffff" d="M 55.757812 339.070312 L 319.15625 339.070312 L 319.15625 348.707031 L 55.757812 348.707031 Z M 55.757812 339.070312 " fill-opacity="1" fill-rule="nonzero"/></g><g clip-path="url(#id5)"><path fill="#ffffff" d="M 339.070312 35.84375 L 339.070312 55.757812 L 348.707031 55.757812 L 348.707031 26.207031 L 319.15625 26.207031 L 319.15625 35.84375 Z M 339.070312 35.84375 " fill-opacity="1" fill-rule="nonzero"/></g><g clip-path="url(#id6)"><path fill="#ffffff" d="M 35.84375 35.84375 L 55.757812 35.84375 L 55.757812 26.207031 L 26.207031 26.207031 L 26.207031 55.757812 L 35.84375 55.757812 Z M 35.84375 35.84375 " fill-opacity="1" fill-rule="nonzero"/></g><g clip-path="url(#id7)"><path fill="#ffffff" d="M 339.070312 339.070312 L 319.15625 339.070312 L 319.15625 348.707031 L 348.707031 348.707031 L 348.707031 319.15625 L 339.070312 319.15625 Z M 339.070312 339.070312 " fill-opacity="1" fill-rule="nonzero"/></g><g clip-path="url(#id8)"><path fill="#ffffff" d="M 35.84375 339.070312 L 35.84375 319.15625 L 26.207031 319.15625 L 26.207031 348.707031 L 55.757812 348.707031 L 55.757812 339.070312 Z M 35.84375 339.070312 " fill-opacity="1" fill-rule="nonzero"/></g><g fill="#ffffff" fill-opacity="1"><g transform="translate(90.344654, 183.183796)"><g><path d="M 9.71875 -97.203125 L 52.078125 -97.203125 C 64.472656 -97.203125 74.097656 -94.257812 80.953125 -88.375 C 87.804688 -82.5 91.234375 -74.144531 91.234375 -63.3125 C 91.234375 -51.925781 87.804688 -43.085938 80.953125 -36.796875 C 74.097656 -30.503906 64.472656 -27.359375 52.078125 -27.359375 L 34.4375 -27.359375 L 34.4375 0 L 9.71875 0 Z M 34.4375 -77.765625 L 34.4375 -46.796875 L 50.828125 -46.796875 C 56.285156 -46.796875 60.492188 -48.132812 63.453125 -50.8125 C 66.421875 -53.5 67.90625 -57.390625 67.90625 -62.484375 C 67.90625 -67.484375 66.421875 -71.28125 63.453125 -73.875 C 60.492188 -76.46875 56.285156 -77.765625 50.828125 -77.765625 Z M 34.4375 -77.765625 "/></g></g></g><g fill="#ffffff" fill-opacity="1"><g transform="translate(190.731805, 183.183796)"><g><path d="M 85.8125 -77.765625 L 34.4375 -77.765625 L 34.4375 -58.453125 L 80.8125 -58.453125 L 80.8125 -39.015625 L 34.4375 -39.015625 L 34.4375 -19.4375 L 87.34375 -19.4375 L 87.34375 0 L 9.71875 0 L 9.71875 -97.203125 L 85.8125 -97.203125 Z M 85.8125 -77.765625 "/></g></g></g><g fill="#ffffff" fill-opacity="1"><g transform="translate(98.842212, 304.901199)"><g><path d="M 34.4375 -20.6875 L 75.671875 -20.6875 L 75.671875 0 L 9.71875 0 L 9.71875 -97.203125 L 34.4375 -97.203125 Z M 34.4375 -20.6875 "/></g></g></g><g fill="#ffffff" fill-opacity="1"><g transform="translate(182.567659, 304.901199)"><g><path d="M 85.8125 -77.765625 L 34.4375 -77.765625 L 34.4375 -58.453125 L 80.8125 -58.453125 L 80.8125 -39.015625 L 34.4375 -39.015625 L 34.4375 -19.4375 L 87.34375 -19.4375 L 87.34375 0 L 9.71875 0 L 9.71875 -97.203125 L 85.8125 -97.203125 Z M 85.8125 -77.765625 "/></g></g></g></svg>